<?xml version="1.0" encoding="UTF-8"?>
<svg id="a" data-name="aq-logo" xmlns="http://www.w3.org/2000/svg" xmlns:xlink="http://www.w3.org/1999/xlink" viewBox="0 0 1920 600">
  <defs>
    <style>
      .g {
        fill: none;
        stroke: url(#b);
        stroke-linecap: round;
        stroke-linejoin: round;
        stroke-width: 50px;
      }

      .h {
        fill: url(#f);
      }

      .i {
        fill: url(#e);
      }

      .j {
        fill: url(#d);
      }

      .k {
        fill: url(#c);
      }
    </style>
    <linearGradient id="b" x1="460" y1="300" x2="810" y2="300" gradientUnits="userSpaceOnUse">
      <stop offset="0" stop-color="#09f"/>
      <stop offset=".25" stop-color="#4080ff"/>
      <stop offset=".5" stop-color="#007fff"/>
      <stop offset=".75" stop-color="#4080ff"/>
      <stop offset="1" stop-color="#0064ff"/>
    </linearGradient>
    <linearGradient id="c" x1="867.87" y1="287.77" x2="1155.11" y2="287.77" xlink:href="#b"/>
    <linearGradient id="d" x1="867.87" y1="287.77" x2="1155.11" y2="287.77" gradientUnits="userSpaceOnUse">
      <stop offset="0" stop-color="#09f"/>
      <stop offset=".25" stop-color="#4080ff"/>
      <stop offset=".5" stop-color="#007fff"/>
      <stop offset=".75" stop-color="#4080ff"/>
      <stop offset="1" stop-color="#0064ff"/>
    </linearGradient>
    <linearGradient id="e" x1="1174.04" x2="1460" xlink:href="#b"/>
    <linearGradient id="f" x1="1174.04" y1="300" x2="1460" y2="300" xlink:href="#d"/>
  </defs>
  <path class="g" d="m513.15,431.25c0-82.84,60.86-150,135.92-150s135.92,67.16,135.92,150c0,6.35-.4,12.6-1.09,18.75m-270.75-18.75c8.11,4.61,19.52,10.1,33.77,13.95,0,0,17.26,4.8,34.19,4.8,75.07,0,135.92-67.16,135.92-150s-60.86-150-135.92-150c-20.25,0-40.43,6.75-40.43,6.75-28.02,9.65-46.51,27.15-55.68,37.19"/>
  <g>
    <g>
      <path class="k" d="m867.87,446.28l112.77-317.02h59.57l114.89,317.02h-52.55l-29.15-83.62h-124.68l-28.3,83.62h-52.55Zm94.68-124.04h96.6l-18.3-52.34c-4.26-12.62-8.87-27.27-13.83-43.94-4.97-16.67-10.57-36.2-16.81-58.62-6.24,22.7-11.81,42.45-16.7,59.26-4.89,16.81-9.33,31.24-13.3,43.3l-17.66,52.34Z"/>
      <path class="j" d="m1039.51,130.26l114.17,315.02h-50.42l-28.92-82.95-.23-.67h-126.11l-.23.68-28.07,82.94h-50.42l112.05-315.02h58.17m-78.35,192.98h99.4l-.46-1.33-18.29-52.33c-4.24-12.59-8.89-27.36-13.82-43.9-4.92-16.51-10.57-36.22-16.8-58.6l-.97-3.48-.96,3.48c-6.23,22.65-11.85,42.58-16.7,59.24-4.86,16.68-9.33,31.24-13.29,43.26l-17.66,52.34-.45,1.32m79.05-193.98h-59.57l-112.77,317.02h52.55l28.3-83.62h124.68l29.15,83.62h52.55l-114.89-317.02h0Zm-77.66,192.98l17.66-52.34c3.97-12.05,8.4-26.49,13.3-43.3,4.89-16.81,10.46-36.56,16.7-59.26,6.24,22.41,11.84,41.95,16.81,58.62,4.96,16.67,9.57,31.31,13.83,43.94l18.3,52.34h-96.6Z"/>
    </g>
    <g>
      <path class="i" d="m1317.23,450.53c-27.38,0-51.88-6.52-73.51-19.57-21.63-13.05-38.65-31.7-51.06-55.96-12.41-24.26-18.62-53.26-18.62-87.02s6.2-63.01,18.62-87.34c12.41-24.33,29.43-43.01,51.06-56.06,21.63-13.05,46.13-19.57,73.51-19.57s51.81,6.53,73.3,19.57c21.49,13.05,38.44,31.74,50.85,56.06,12.41,24.33,18.62,53.44,18.62,87.34,0,29.36-4.75,55.14-14.26,77.34-9.5,22.2-22.48,40.25-38.94,54.15l42.34,55.53h-48.3l-27.02-35.53c-17.45,7.37-36.31,11.06-56.6,11.06Zm-15.53-106.6h46.6l30,38.94c10.35-9.93,18.54-22.84,24.57-38.72,6.03-15.88,9.04-34.61,9.04-56.17,0-25.67-4.15-47.34-12.45-65-8.3-17.66-19.57-31.03-33.83-40.11-14.26-9.08-30.39-13.62-48.4-13.62s-34.4,4.54-48.72,13.62c-14.33,9.08-25.64,22.45-33.94,40.11-8.3,17.66-12.45,39.33-12.45,65s4.15,47.09,12.45,64.68c8.3,17.59,19.61,30.92,33.94,40,14.33,9.08,30.57,13.62,48.72,13.62,10.07,0,19.64-1.42,28.72-4.26l-44.26-58.09Z"/>
      <path class="h" d="m1317.23,126c27.06,0,51.55,6.54,72.78,19.43,21.23,12.89,38.21,31.62,50.48,55.66,12.28,24.08,18.51,53.31,18.51,86.89,0,29.09-4.77,54.97-14.17,76.95-9.4,21.95-22.41,40.04-38.66,53.78l-.73.61.58.76,41.12,53.92h-45.78l-26.72-35.14-.47-.62-.72.3c-17.25,7.29-36.16,10.98-56.21,10.98-27.07,0-51.63-6.54-72.99-19.43-21.37-12.89-38.42-31.58-50.69-55.56-12.28-24-18.51-53.12-18.51-86.57s6.23-62.82,18.51-86.89c12.27-24.04,29.32-42.77,50.69-55.66,21.37-12.89,45.93-19.43,72.99-19.43m0,281.28c10.13,0,19.89-1.45,29.02-4.3l1.36-.43-.86-1.13-43.03-56.48h44.08l29.7,38.55.68.88.8-.77c10.41-9.98,18.76-23.13,24.82-39.09,6.04-15.93,9.11-34.95,9.11-56.53,0-25.7-4.22-47.72-12.54-65.43-8.34-17.75-19.84-31.38-34.2-40.52-14.36-9.14-30.82-13.77-48.94-13.77s-34.83,4.63-49.26,13.77c-14.42,9.14-25.97,22.77-34.31,40.53-8.32,17.71-12.54,39.72-12.54,65.43s4.22,47.47,12.54,65.11c8.34,17.68,19.88,31.28,34.3,40.42,14.42,9.14,30.99,13.77,49.26,13.77m0-282.28c-27.38,0-51.88,6.53-73.51,19.57-21.63,13.05-38.65,31.74-51.06,56.06-12.41,24.33-18.62,53.44-18.62,87.34s6.2,62.77,18.62,87.02c12.41,24.26,29.43,42.91,51.06,55.96,21.63,13.05,46.13,19.57,73.51,19.57,20.28,0,39.15-3.69,56.6-11.06l27.02,35.53h48.3l-42.34-55.53c16.45-13.9,29.43-31.95,38.94-54.15,9.5-22.2,14.26-47.98,14.26-77.34,0-33.9-6.21-63.01-18.62-87.34-12.41-24.33-29.36-43.01-50.85-56.06-21.49-13.05-45.92-19.57-73.3-19.57h0Zm0,281.28c-18.16,0-34.4-4.54-48.72-13.62-14.33-9.08-25.64-22.41-33.94-40-8.3-17.59-12.45-39.15-12.45-64.68s4.15-47.34,12.45-65c8.3-17.66,19.61-31.03,33.94-40.11,14.33-9.08,30.57-13.62,48.72-13.62s34.15,4.54,48.4,13.62c14.25,9.08,25.53,22.45,33.83,40.11,8.3,17.66,12.45,39.33,12.45,65,0,21.56-3.02,40.29-9.04,56.17-6.03,15.89-14.22,28.8-24.57,38.72l-30-38.94h-46.6l44.26,58.09c-9.08,2.84-18.65,4.26-28.72,4.26h0Z"/>
    </g>
  </g>
</svg>